<svg xmlns="http://www.w3.org/2000/svg"
     version="1.1"
     viewBox="0 0 24 24">

  <rect width="100%" height="100%" fill="white"/>

  <g>
    <path d="M21,20h-1V10c0-1.1000977-0.8999023-2-2-2V4c0-1.1000977-0.8999023-2-2-2h-1c-1.1000977,0-2,0.8999023-2,2h-2
      c0-1.1000977-0.8999023-2-2-2H8C6.8999023,2,6,2.8999023,6,4v4c-1.1000977,0-2,0.8999023-2,2v10H3
      c-0.5498047,0-1,0.4501953-1,1s0.4501953,1,1,1h7v-4c0-1.1000977,0.8999023-2,2-2
      c0.5498047,0,1.0498047,0.2202148,1.4101563,0.5898438
      C13.7797852,16.9501953,14,17.4501953,14,18v4h7
      c0.5498047,0,1-0.4501953,1-1S21.5498047,20,21,20z
      M8,15c-0.5498047,0-1-0.4501953-1-1s0.4501953-1,1-1
      s1,0.4501953,1,1S8.5498047,15,8,15z
      M16,15c-0.5498047,0-1-0.4501953-1-1s0.4501953-1,1-1
      s1,0.4501953,1,1S16.5498047,15,16,15z"/>
  </g>
</svg>

